<svg xmlns="http://www.w3.org/2000/svg" xmlns:xlink="http://www.w3.org/1999/xlink" xmlns:lucid="lucid" width="980" height="1079"><g transform="translate(0 -792)" lucid:page-tab-id="0_0"><path d="M40 1006a6 6 0 0 1 6-6h148a6 6 0 0 1 6 6v108a6 6 0 0 1-6 6H46a6 6 0 0 1-6-6z" stroke="#54c45e" stroke-width="5" fill="#c3f7c8"/><use xlink:href="#a" transform="matrix(1,0,0,1,52,1012) translate(29.172839506172842 38.77777777777778)"/><use xlink:href="#b" transform="matrix(1,0,0,1,52,1012) translate(14.975308641975317 65.44444444444446)"/><use xlink:href="#c" transform="matrix(1,0,0,1,52,1012) translate(82.81481481481481 65.44444444444446)"/><path d="M280 1006a6 6 0 0 1 6-6h148a6 6 0 0 1 6 6v108a6 6 0 0 1-6 6H286a6 6 0 0 1-6-6z" stroke="#fc9432" stroke-width="5" fill="#ffdda6"/><use xlink:href="#d" transform="matrix(1,0,0,1,292,1012) translate(14.327160493827158 26.77777777777778)"/><use xlink:href="#e" transform="matrix(1,0,0,1,292,1012) translate(32.25925925925926 53.44444444444445)"/><use xlink:href="#b" transform="matrix(1,0,0,1,292,1012) translate(11.302469135802482 80.11111111111111)"/><use xlink:href="#f" transform="matrix(1,0,0,1,292,1012) translate(79.14197530864197 80.11111111111111)"/><path d="M520 1006a6 6 0 0 1 6-6h148a6 6 0 0 1 6 6v108a6 6 0 0 1-6 6H526a6 6 0 0 1-6-6z" stroke="#3a414a" stroke-width="5" fill="#fff"/><use xlink:href="#g" transform="matrix(1,0,0,1,532,1012) translate(25.09876543209876 38.77777777777778)"/><use xlink:href="#h" transform="matrix(1,0,0,1,532,1012) translate(37.81481481481482 65.44444444444446)"/><path d="M443 1060h58.12" stroke="#3a414a" fill="none"/><path d="M443 1060.5h-.5v-1h.5z" stroke="#3a414a" stroke-width=".05" fill="#3a414a"/><path d="M515.88 1060l-14.26 4.63v-9.27z" stroke="#3a414a" fill="#3a414a"/><path d="M203 1060h58.12" stroke="#3a414a" fill="none"/><path d="M203 1060.5h-.5v-1h.5z" stroke="#3a414a" stroke-width=".05" fill="#3a414a"/><path d="M275.88 1060l-14.26 4.63v-9.27z" stroke="#3a414a" fill="#3a414a"/><path d="M400 826a6 6 0 0 1 6-6h148a6 6 0 0 1 6 6v108a6 6 0 0 1-6 6H406a6 6 0 0 1-6-6z" stroke="#fc9432" stroke-width="5" fill="#ffdda6"/><use xlink:href="#i" transform="matrix(1,0,0,1,412,832) translate(26.086419753086425 38.77777777777778)"/><use xlink:href="#j" transform="matrix(1,0,0,1,412,832) translate(39.66666666666667 65.44444444444446)"/><path d="M480 943v95.88a21.12 21.12 0 0 0 21.12 21.12" stroke="#3a414a" fill="none"/><path d="M480.5 943h-1v-.5h1z" stroke="#3a414a" stroke-width=".05" fill="#3a414a"/><path d="M515.88 1060l-14.26 4.63v-9.27z" stroke="#3a414a" fill="#3a414a"/><path d="M789.18 1005.3a10 10 0 0 1 8.82-5.3h106c8.84 0 16 26.86 16 60s-7.16 60-16 60H798a10 10 0 0 1-8.82-5.3l-26.36-49.4a11.25 11.25 0 0 1 0-10.6z" stroke="#1071e5" stroke-width="3" fill="#cfe4ff"/><use xlink:href="#k" transform="matrix(1,0,0,1,765,1005) translate(42.41240740740741 45.27777777777778)"/><use xlink:href="#b" transform="matrix(1,0,0,1,765,1005) translate(22.80746913580247 71.94444444444446)"/><use xlink:href="#f" transform="matrix(1,0,0,1,765,1005) translate(90.64697530864197 71.94444444444446)"/><path d="M683 1060h60.6" stroke="#3a414a" fill="none"/><path d="M683 1060.5h-.5v-1h.5z" stroke="#3a414a" stroke-width=".05" fill="#3a414a"/><path d="M758.38 1060l-14.27 4.63v-9.27z" stroke="#3a414a" fill="#3a414a"/><path d="M40 1723.5a6 6 0 0 1 6-6h148a6 6 0 0 1 6 6v108a6 6 0 0 1-6 6H46a6 6 0 0 1-6-6z" stroke="#54c45e" stroke-width="5" fill="#c3f7c8"/><use xlink:href="#a" transform="matrix(1,0,0,1,52,1729.5000499999996) translate(29.172839506172842 38.77777777777778)"/><use xlink:href="#l" transform="matrix(1,0,0,1,52,1729.5000499999996) translate(24.882716049382722 65.44444444444446)"/><use xlink:href="#m" transform="matrix(1,0,0,1,52,1729.5000499999996) translate(75.43827160493828 65.44444444444446)"/><path d="M280 1246a6 6 0 0 1 6-6h148a6 6 0 0 1 6 6v108a6 6 0 0 1-6 6H286a6 6 0 0 1-6-6z" stroke="#fc9432" stroke-width="5" fill="#ffdda6"/><use xlink:href="#d" transform="matrix(1,0,0,1,292,1252) translate(14.327160493827158 38.77777777777778)"/><use xlink:href="#n" transform="matrix(1,0,0,1,292,1252) translate(32.25925925925926 65.44444444444446)"/><path d="M280 1723.5a6 6 0 0 1 6-6h148a6 6 0 0 1 6 6v108a6 6 0 0 1-6 6H286a6 6 0 0 1-6-6z" stroke="#fc9432" stroke-width="5" fill="#ffdda6"/><use xlink:href="#d" transform="matrix(1,0,0,1,292,1729.5000499999996) translate(14.327160493827158 26.77777777777778)"/><use xlink:href="#e" transform="matrix(1,0,0,1,292,1729.5000499999996) translate(32.25925925925926 53.44444444444445)"/><use xlink:href="#l" transform="matrix(1,0,0,1,292,1729.5000499999996) translate(24.882716049382722 80.11111111111111)"/><use xlink:href="#m" transform="matrix(1,0,0,1,292,1729.5000499999996) translate(75.43827160493828 80.11111111111111)"/><path d="M280 1486a6 6 0 0 1 6-6h148a6 6 0 0 1 6 6v108a6 6 0 0 1-6 6H286a6 6 0 0 1-6-6z" stroke="#fc9432" stroke-width="5" fill="#ffdda6"/><use xlink:href="#d" transform="matrix(1,0,0,1,292,1492) translate(14.327160493827158 38.77777777777778)"/><use xlink:href="#n" transform="matrix(1,0,0,1,292,1492) translate(32.25925925925926 65.44444444444446)"/><path d="M203 1777.5h58.12" stroke="#3a414a" fill="none"/><path d="M203 1778h-.5v-1h.5z" stroke="#3a414a" stroke-width=".05" fill="#3a414a"/><path d="M275.88 1777.5l-14.26 4.63v-9.27z" stroke="#3a414a" fill="#3a414a"/><path d="M360 1123v98.12" stroke="#3a414a" fill="none"/><path d="M360.5 1123h-1v-.5h1z" stroke="#3a414a" stroke-width=".05" fill="#3a414a"/><path d="M360 1235.88l-4.63-14.26h9.26z" stroke="#3a414a" fill="#3a414a"/><use xlink:href="#o" transform="matrix(1,0,0,1,212.09876543209873,1158.6666666666667) translate(0.0049999999999954525 14.222222222222223)"/><use xlink:href="#p" transform="matrix(1,0,0,1,212.09876543209873,1158.6666666666667) translate(50.2766049382716 14.222222222222223)"/><use xlink:href="#q" transform="matrix(1,0,0,1,212.09876543209873,1158.6666666666667) translate(113.33833333333334 14.222222222222223)"/><use xlink:href="#r" transform="matrix(1,0,0,1,212.09876543209873,1158.6666666666667) translate(4.400061728395045 35.55555555555556)"/><use xlink:href="#s" transform="matrix(1,0,0,1,212.09876543209873,1158.6666666666667) translate(47.75808641975308 35.55555555555556)"/><use xlink:href="#t" transform="matrix(1,0,0,1,212.09876543209873,1158.6666666666667) translate(82.2766049382716 35.55555555555556)"/><path d="M360 1363v98.12" stroke="#3a414a" fill="none"/><path d="M360.5 1363h-1v-.5h1z" stroke="#3a414a" stroke-width=".05" fill="#3a414a"/><path d="M360 1475.88l-4.63-14.26h9.26z" stroke="#3a414a" fill="#3a414a"/><use xlink:href="#o" transform="matrix(1,0,0,1,212.09876543209873,1398.6666666666667) translate(0.0049999999999954525 14.222222222222223)"/><use xlink:href="#p" transform="matrix(1,0,0,1,212.09876543209873,1398.6666666666667) translate(50.2766049382716 14.222222222222223)"/><use xlink:href="#q" transform="matrix(1,0,0,1,212.09876543209873,1398.6666666666667) translate(113.33833333333334 14.222222222222223)"/><use xlink:href="#r" transform="matrix(1,0,0,1,212.09876543209873,1398.6666666666667) translate(4.400061728395045 35.55555555555556)"/><use xlink:href="#s" transform="matrix(1,0,0,1,212.09876543209873,1398.6666666666667) translate(47.75808641975308 35.55555555555556)"/><use xlink:href="#t" transform="matrix(1,0,0,1,212.09876543209873,1398.6666666666667) translate(82.2766049382716 35.55555555555556)"/><path d="M360 1603v95.62" stroke="#3a414a" fill="none"/><path d="M360.5 1603h-1v-.5h1z" stroke="#3a414a" stroke-width=".05" fill="#3a414a"/><path d="M360 1713.38l-4.63-14.26h9.26z" stroke="#3a414a" fill="#3a414a"/><use xlink:href="#o" transform="matrix(1,0,0,1,212.09876543209873,1637.4166916666666) translate(0.0049999999999954525 14.222222222222223)"/><use xlink:href="#p" transform="matrix(1,0,0,1,212.09876543209873,1637.4166916666666) translate(50.2766049382716 14.222222222222223)"/><use xlink:href="#q" transform="matrix(1,0,0,1,212.09876543209873,1637.4166916666666) translate(113.33833333333334 14.222222222222223)"/><use xlink:href="#r" transform="matrix(1,0,0,1,212.09876543209873,1637.4166916666666) translate(4.400061728395045 35.55555555555556)"/><use xlink:href="#s" transform="matrix(1,0,0,1,212.09876543209873,1637.4166916666666) translate(47.75808641975308 35.55555555555556)"/><use xlink:href="#t" transform="matrix(1,0,0,1,212.09876543209873,1637.4166916666666) translate(82.2766049382716 35.55555555555556)"/><path d="M520 1246a6 6 0 0 1 6-6h148a6 6 0 0 1 6 6v108a6 6 0 0 1-6 6H526a6 6 0 0 1-6-6z" stroke="#3a414a" stroke-width="5" fill="#fff"/><use xlink:href="#g" transform="matrix(1,0,0,1,532,1252) translate(25.09876543209876 38.77777777777778)"/><use xlink:href="#h" transform="matrix(1,0,0,1,532,1252) translate(37.81481481481482 65.44444444444446)"/><path d="M789.18 1245.3a10 10 0 0 1 8.82-5.3h106c8.84 0 16 26.86 16 60s-7.16 60-16 60H798a10 10 0 0 1-8.82-5.3l-26.36-49.4a11.25 11.25 0 0 1 0-10.6z" stroke="#1071e5" stroke-width="3" fill="#cfe4ff"/><use xlink:href="#k" transform="matrix(1,0,0,1,765,1245) translate(45.912407407407414 31.52777777777778)"/><use xlink:href="#u" transform="matrix(1,0,0,1,765,1245) translate(14.33833333333334 58.19444444444445)"/><use xlink:href="#v" transform="matrix(1,0,0,1,765,1245) translate(93.28895061728394 58.19444444444445)"/><use xlink:href="#w" transform="matrix(1,0,0,1,765,1245) translate(38.21487654320987 84.86111111111111)"/><path d="M683 1300h60.6" stroke="#3a414a" fill="none"/><path d="M683 1300.5h-.5v-1h.5z" stroke="#3a414a" stroke-width=".05" fill="#3a414a"/><path d="M758.38 1300l-14.27 4.63v-9.27z" stroke="#3a414a" fill="#3a414a"/><path d="M520 1486a6 6 0 0 1 6-6h148a6 6 0 0 1 6 6v108a6 6 0 0 1-6 6H526a6 6 0 0 1-6-6z" stroke="#3a414a" stroke-width="5" fill="#fff"/><g><use xlink:href="#g" transform="matrix(1,0,0,1,532,1492) translate(25.09876543209876 38.77777777777778)"/><use xlink:href="#h" transform="matrix(1,0,0,1,532,1492) translate(37.81481481481482 65.44444444444446)"/></g><path d="M789.18 1485.3a10 10 0 0 1 8.82-5.3h106c8.84 0 16 26.86 16 60s-7.16 60-16 60H798a10 10 0 0 1-8.82-5.3l-26.36-49.4a11.25 11.25 0 0 1 0-10.6z" stroke="#1071e5" stroke-width="3" fill="#cfe4ff"/><g><use xlink:href="#k" transform="matrix(1,0,0,1,765,1485) translate(45.912407407407414 31.52777777777778)"/><use xlink:href="#x" transform="matrix(1,0,0,1,765,1485) translate(14.33833333333334 58.19444444444445)"/><use xlink:href="#y" transform="matrix(1,0,0,1,765,1485) translate(76.005 58.19444444444445)"/><use xlink:href="#z" transform="matrix(1,0,0,1,765,1485) translate(38.21487654320987 84.86111111111111)"/></g><path d="M683 1540h60.6" stroke="#3a414a" fill="none"/><path d="M683 1540.5h-.5v-1h.5z" stroke="#3a414a" stroke-width=".05" fill="#3a414a"/><path d="M758.38 1540l-14.27 4.63v-9.27z" stroke="#3a414a" fill="#3a414a"/><path d="M520 1723.5a6 6 0 0 1 6-6h148a6 6 0 0 1 6 6v108a6 6 0 0 1-6 6H526a6 6 0 0 1-6-6z" stroke="#3a414a" stroke-width="5" fill="#fff"/><g><use xlink:href="#g" transform="matrix(1,0,0,1,532,1729.5000499999996) translate(25.09876543209876 38.77777777777778)"/><use xlink:href="#h" transform="matrix(1,0,0,1,532,1729.5000499999996) translate(37.81481481481482 65.44444444444446)"/></g><path d="M789.18 1722.8a10 10 0 0 1 8.82-5.3h106c8.84 0 16 26.86 16 60s-7.16 60-16 60H798a10 10 0 0 1-8.82-5.3l-26.36-49.4a11.25 11.25 0 0 1 0-10.6z" stroke="#1071e5" stroke-width="3" fill="#cfe4ff"/><g><use xlink:href="#k" transform="matrix(1,0,0,1,765,1722.5000499999996) translate(42.41240740740741 45.27777777777778)"/><use xlink:href="#l" transform="matrix(1,0,0,1,765,1722.5000499999996) translate(36.38771604938272 71.94444444444446)"/><use xlink:href="#m" transform="matrix(1,0,0,1,765,1722.5000499999996) translate(86.94327160493827 71.94444444444446)"/></g><path d="M683 1777.5h60.6" stroke="#3a414a" fill="none"/><path d="M683 1778h-.5v-1h.5z" stroke="#3a414a" stroke-width=".05" fill="#3a414a"/><path d="M758.38 1777.5l-14.27 4.63v-9.27z" stroke="#3a414a" fill="#3a414a"/><path d="M480 943v335.88a21.12 21.12 0 0 0 21.12 21.12" stroke="#3a414a" fill="none"/><path d="M480.5 943h-1v-.5h1z" stroke="#3a414a" stroke-width=".05" fill="#3a414a"/><path d="M515.88 1300l-14.26 4.63v-9.27z" stroke="#3a414a" fill="#3a414a"/><path d="M480 943v575.88a21.12 21.12 0 0 0 21.12 21.12" stroke="#3a414a" fill="none"/><path d="M480.5 943h-1v-.5h1z" stroke="#3a414a" stroke-width=".05" fill="#3a414a"/><path d="M515.88 1540l-14.26 4.63v-9.27z" stroke="#3a414a" fill="#3a414a"/><path d="M480 943v813.38a21.12 21.12 0 0 0 21.12 21.12" stroke="#3a414a" fill="none"/><path d="M480.5 943h-1v-.5h1z" stroke="#3a414a" stroke-width=".05" fill="#3a414a"/><path d="M515.88 1777.5l-14.26 4.63v-9.27z" stroke="#3a414a" fill="#3a414a"/><path d="M443 1300h58.12" stroke="#3a414a" fill="none"/><path d="M443 1300.5h-.5v-1h.5z" stroke="#3a414a" stroke-width=".05" fill="#3a414a"/><path d="M515.88 1300l-14.26 4.63v-9.27z" stroke="#3a414a" fill="#3a414a"/><path d="M443 1540h58.12" stroke="#3a414a" fill="none"/><path d="M443 1540.5h-.5v-1h.5z" stroke="#3a414a" stroke-width=".05" fill="#3a414a"/><path d="M515.88 1540l-14.26 4.63v-9.27z" stroke="#3a414a" fill="#3a414a"/><path d="M443 1777.5h58.12" stroke="#3a414a" fill="none"/><path d="M443 1778h-.5v-1h.5z" stroke="#3a414a" stroke-width=".05" fill="#3a414a"/><path d="M515.88 1777.5l-14.26 4.63v-9.27z" stroke="#3a414a" fill="#3a414a"/><defs><path fill="#3a414a" d="M30-248c87 1 191-15 191 75 0 78-77 80-158 76V0H30v-248zm33 125c57 0 124 11 124-50 0-59-68-47-124-48v98" id="A"/><path fill="#3a414a" d="M114-163C36-179 61-72 57 0H25l-1-190h30c1 12-1 29 2 39 6-27 23-49 58-41v29" id="B"/><path fill="#3a414a" d="M100-194c62-1 85 37 85 99 1 63-27 99-86 99S16-35 15-95c0-66 28-99 85-99zM99-20c44 1 53-31 53-75 0-43-8-75-51-75s-53 32-53 75 10 74 51 75" id="C"/><path fill="#3a414a" d="M210-169c-67 3-38 105-44 169h-31v-121c0-29-5-50-35-48C34-165 62-65 56 0H25l-1-190h30c1 10-1 24 2 32 10-44 99-50 107 0 11-21 27-35 58-36 85-2 47 119 55 194h-31v-121c0-29-5-49-35-48" id="D"/><path fill="#3a414a" d="M115-194c55 1 70 41 70 98S169 2 115 4C84 4 66-9 55-30l1 105H24l-1-265h31l2 30c10-21 28-34 59-34zm-8 174c40 0 45-34 45-75s-6-73-45-74c-42 0-51 32-51 76 0 43 10 73 51 73" id="E"/><path fill="#3a414a" d="M59-47c-2 24 18 29 38 22v24C64 9 27 4 27-40v-127H5v-23h24l9-43h21v43h35v23H59v120" id="F"/><path fill="#3a414a" d="M33-154v-36h34v36H33zM33 0v-36h34V0H33" id="G"/><g id="a"><use transform="matrix(0.06172839506172839,0,0,0.06172839506172839,0,0)" xlink:href="#A"/><use transform="matrix(0.06172839506172839,0,0,0.06172839506172839,14.814814814814813,0)" xlink:href="#B"/><use transform="matrix(0.06172839506172839,0,0,0.06172839506172839,22.160493827160494,0)" xlink:href="#C"/><use transform="matrix(0.06172839506172839,0,0,0.06172839506172839,34.50617283950617,0)" xlink:href="#D"/><use transform="matrix(0.06172839506172839,0,0,0.06172839506172839,52.96296296296296,0)" xlink:href="#E"/><use transform="matrix(0.06172839506172839,0,0,0.06172839506172839,65.30864197530865,0)" xlink:href="#F"/><use transform="matrix(0.06172839506172839,0,0,0.06172839506172839,71.48148148148148,0)" xlink:href="#G"/></g><path fill="#3a414a" d="M143 4C61 4 22-44 18-125c-5-107 100-154 193-111 17 8 29 25 37 43l-32 9c-13-25-37-40-76-40-61 0-88 39-88 99 0 61 29 100 91 101 35 0 62-11 79-27v-45h-74v-28h105v86C228-13 192 4 143 4" id="H"/><path fill="#3a414a" d="M100-194c63 0 86 42 84 106H49c0 40 14 67 53 68 26 1 43-12 49-29l28 8c-11 28-37 45-77 45C44 4 14-33 15-96c1-61 26-98 85-98zm52 81c6-60-76-77-97-28-3 7-6 17-6 28h103" id="I"/><path fill="#3a414a" d="M117-194c89-4 53 116 60 194h-32v-121c0-31-8-49-39-48C34-167 62-67 57 0H25l-1-190h30c1 10-1 24 2 32 11-22 29-35 61-36" id="J"/><g id="b"><use transform="matrix(0.06172839506172839,0,0,0.06172839506172839,0,0)" xlink:href="#H"/><use transform="matrix(0.06172839506172839,0,0,0.06172839506172839,17.28395061728395,0)" xlink:href="#B"/><use transform="matrix(0.06172839506172839,0,0,0.06172839506172839,24.629629629629626,0)" xlink:href="#I"/><use transform="matrix(0.06172839506172839,0,0,0.06172839506172839,36.9753086419753,0)" xlink:href="#I"/><use transform="matrix(0.06172839506172839,0,0,0.06172839506172839,49.32098765432098,0)" xlink:href="#J"/></g><path fill="#3a414a" d="M101-234c-31-9-42 10-38 44h38v23H63V0H32v-167H5v-23h27c-7-52 17-82 69-68v24" id="K"/><path fill="#3a414a" d="M177-190C167-65 218 103 67 71c-23-6-38-20-44-43l32-5c15 47 100 32 89-28v-30C133-14 115 1 83 1 29 1 15-40 15-95c0-56 16-97 71-98 29-1 48 16 59 35 1-10 0-23 2-32h30zM94-22c36 0 50-32 50-73 0-42-14-75-50-75-39 0-46 34-46 75s6 73 46 73" id="L"/><g id="c"><use transform="matrix(0.06172839506172839,0,0,0.06172839506172839,0,0)" xlink:href="#K"/><use transform="matrix(0.06172839506172839,0,0,0.06172839506172839,6.172839506172839,0)" xlink:href="#B"/><use transform="matrix(0.06172839506172839,0,0,0.06172839506172839,13.518518518518519,0)" xlink:href="#C"/><use transform="matrix(0.06172839506172839,0,0,0.06172839506172839,25.864197530864196,0)" xlink:href="#L"/></g><path fill="#3a414a" d="M30 0v-248h187v28H63v79h144v27H63v87h162V0H30" id="M"/><path fill="#3a414a" d="M115-194c53 0 69 39 70 98 0 66-23 100-70 100C84 3 66-7 56-30L54 0H23l1-261h32v101c10-23 28-34 59-34zm-8 174c40 0 45-34 45-75 0-40-5-75-45-74-42 0-51 32-51 76 0 43 10 73 51 73" id="N"/><path fill="#3a414a" d="M85-194c31 0 48 13 60 33l-1-100h32l1 261h-30c-2-10 0-23-3-31C134-8 116 4 85 4 32 4 16-35 15-94c0-66 23-100 70-100zm9 24c-40 0-46 34-46 75 0 40 6 74 45 74 42 0 51-32 51-76 0-42-9-74-50-73" id="O"/><g id="d"><use transform="matrix(0.06172839506172839,0,0,0.06172839506172839,0,0)" xlink:href="#M"/><use transform="matrix(0.06172839506172839,0,0,0.06172839506172839,14.814814814814813,0)" xlink:href="#D"/><use transform="matrix(0.06172839506172839,0,0,0.06172839506172839,33.2716049382716,0)" xlink:href="#N"/><use transform="matrix(0.06172839506172839,0,0,0.06172839506172839,45.61728395061728,0)" xlink:href="#I"/><use transform="matrix(0.06172839506172839,0,0,0.06172839506172839,57.962962962962955,0)" xlink:href="#O"/><use transform="matrix(0.06172839506172839,0,0,0.06172839506172839,70.30864197530863,0)" xlink:href="#O"/><use transform="matrix(0.06172839506172839,0,0,0.06172839506172839,82.65432098765432,0)" xlink:href="#I"/><use transform="matrix(0.06172839506172839,0,0,0.06172839506172839,95,0)" xlink:href="#O"/></g><g id="e"><use transform="matrix(0.06172839506172839,0,0,0.06172839506172839,0,0)" xlink:href="#A"/><use transform="matrix(0.06172839506172839,0,0,0.06172839506172839,14.814814814814813,0)" xlink:href="#B"/><use transform="matrix(0.06172839506172839,0,0,0.06172839506172839,22.160493827160494,0)" xlink:href="#C"/><use transform="matrix(0.06172839506172839,0,0,0.06172839506172839,34.50617283950617,0)" xlink:href="#D"/><use transform="matrix(0.06172839506172839,0,0,0.06172839506172839,52.96296296296296,0)" xlink:href="#E"/><use transform="matrix(0.06172839506172839,0,0,0.06172839506172839,65.30864197530865,0)" xlink:href="#F"/></g><path fill="#3a414a" d="M63-220v92h138v28H63V0H30v-248h175v28H63" id="P"/><g id="f"><use transform="matrix(0.06172839506172839,0,0,0.06172839506172839,0,0)" xlink:href="#P"/><use transform="matrix(0.06172839506172839,0,0,0.06172839506172839,13.518518518518517,0)" xlink:href="#B"/><use transform="matrix(0.06172839506172839,0,0,0.06172839506172839,20.864197530864196,0)" xlink:href="#C"/><use transform="matrix(0.06172839506172839,0,0,0.06172839506172839,33.20987654320987,0)" xlink:href="#L"/></g><path fill="#3a414a" d="M30-248c118-7 216 8 213 122C240-48 200 0 122 0H30v-248zM63-27c89 8 146-16 146-99s-60-101-146-95v194" id="Q"/><path fill="#3a414a" d="M24-231v-30h32v30H24zM24 0v-190h32V0H24" id="R"/><path fill="#3a414a" d="M84 4C-5 8 30-112 23-190h32v120c0 31 7 50 39 49 72-2 45-101 50-169h31l1 190h-30c-1-10 1-25-2-33-11 22-28 36-60 37" id="S"/><path fill="#3a414a" d="M135-143c-3-34-86-38-87 0 15 53 115 12 119 90S17 21 10-45l28-5c4 36 97 45 98 0-10-56-113-15-118-90-4-57 82-63 122-42 12 7 21 19 24 35" id="T"/><g id="g"><use transform="matrix(0.06172839506172839,0,0,0.06172839506172839,0,0)" xlink:href="#Q"/><use transform="matrix(0.06172839506172839,0,0,0.06172839506172839,15.987654320987653,0)" xlink:href="#R"/><use transform="matrix(0.06172839506172839,0,0,0.06172839506172839,20.864197530864196,0)" xlink:href="#K"/><use transform="matrix(0.06172839506172839,0,0,0.06172839506172839,26.604938271604937,0)" xlink:href="#K"/><use transform="matrix(0.06172839506172839,0,0,0.06172839506172839,32.77777777777778,0)" xlink:href="#S"/><use transform="matrix(0.06172839506172839,0,0,0.06172839506172839,45.123456790123456,0)" xlink:href="#T"/><use transform="matrix(0.06172839506172839,0,0,0.06172839506172839,56.23456790123457,0)" xlink:href="#R"/><use transform="matrix(0.06172839506172839,0,0,0.06172839506172839,61.111111111111114,0)" xlink:href="#C"/><use transform="matrix(0.06172839506172839,0,0,0.06172839506172839,73.4567901234568,0)" xlink:href="#J"/></g><path fill="#3a414a" d="M240 0l2-218c-23 76-54 145-80 218h-23L58-218 59 0H30v-248h44l77 211c21-75 51-140 76-211h43V0h-30" id="U"/><path fill="#3a414a" d="M24 0v-261h32V0H24" id="V"/><g id="h"><use transform="matrix(0.06172839506172839,0,0,0.06172839506172839,0,0)" xlink:href="#U"/><use transform="matrix(0.06172839506172839,0,0,0.06172839506172839,18.456790123456788,0)" xlink:href="#C"/><use transform="matrix(0.06172839506172839,0,0,0.06172839506172839,30.80246913580247,0)" xlink:href="#O"/><use transform="matrix(0.06172839506172839,0,0,0.06172839506172839,43.148148148148145,0)" xlink:href="#I"/><use transform="matrix(0.06172839506172839,0,0,0.06172839506172839,55.49382716049382,0)" xlink:href="#V"/></g><path fill="#3a414a" d="M233-177c-1 41-23 64-60 70L243 0h-38l-65-103H63V0H30v-248c88 3 205-21 203 71zM63-129c60-2 137 13 137-47 0-61-80-42-137-45v92" id="W"/><path fill="#3a414a" d="M141-36C126-15 110 5 73 4 37 3 15-17 15-53c-1-64 63-63 125-63 3-35-9-54-41-54-24 1-41 7-42 31l-33-3c5-37 33-52 76-52 45 0 72 20 72 64v82c-1 20 7 32 28 27v20c-31 9-61-2-59-35zM48-53c0 20 12 33 32 33 41-3 63-29 60-74-43 2-92-5-92 41" id="X"/><g id="i"><use transform="matrix(0.06172839506172839,0,0,0.06172839506172839,0,0)" xlink:href="#W"/><use transform="matrix(0.06172839506172839,0,0,0.06172839506172839,15.987654320987653,0)" xlink:href="#X"/><use transform="matrix(0.06172839506172839,0,0,0.06172839506172839,28.333333333333332,0)" xlink:href="#J"/><use transform="matrix(0.06172839506172839,0,0,0.06172839506172839,40.67901234567901,0)" xlink:href="#O"/><use transform="matrix(0.06172839506172839,0,0,0.06172839506172839,53.02469135802469,0)" xlink:href="#C"/><use transform="matrix(0.06172839506172839,0,0,0.06172839506172839,65.37037037037037,0)" xlink:href="#D"/></g><path fill="#3a414a" d="M190 0L58-211 59 0H30v-248h39L202-35l-2-213h31V0h-41" id="Y"/><g id="j"><use transform="matrix(0.06172839506172839,0,0,0.06172839506172839,0,0)" xlink:href="#Y"/><use transform="matrix(0.06172839506172839,0,0,0.06172839506172839,15.987654320987653,0)" xlink:href="#C"/><use transform="matrix(0.06172839506172839,0,0,0.06172839506172839,28.333333333333332,0)" xlink:href="#R"/><use transform="matrix(0.06172839506172839,0,0,0.06172839506172839,33.20987654320987,0)" xlink:href="#T"/><use transform="matrix(0.06172839506172839,0,0,0.06172839506172839,44.32098765432099,0)" xlink:href="#I"/></g><path fill="#3a414a" d="M96-169c-40 0-48 33-48 73s9 75 48 75c24 0 41-14 43-38l32 2c-6 37-31 61-74 61-59 0-76-41-82-99-10-93 101-131 147-64 4 7 5 14 7 22l-32 3c-4-21-16-35-41-35" id="Z"/><g id="k"><use transform="matrix(0.06172839506172839,0,0,0.06172839506172839,0,0)" xlink:href="#A"/><use transform="matrix(0.06172839506172839,0,0,0.06172839506172839,14.814814814814813,0)" xlink:href="#R"/><use transform="matrix(0.06172839506172839,0,0,0.06172839506172839,19.691358024691354,0)" xlink:href="#Z"/><use transform="matrix(0.06172839506172839,0,0,0.06172839506172839,30.802469135802465,0)" xlink:href="#F"/><use transform="matrix(0.06172839506172839,0,0,0.06172839506172839,36.9753086419753,0)" xlink:href="#S"/><use transform="matrix(0.06172839506172839,0,0,0.06172839506172839,49.32098765432098,0)" xlink:href="#B"/><use transform="matrix(0.06172839506172839,0,0,0.06172839506172839,56.66666666666666,0)" xlink:href="#I"/><use transform="matrix(0.06172839506172839,0,0,0.06172839506172839,69.01234567901234,0)" xlink:href="#G"/></g><path fill="#3a414a" d="M160-131c35 5 61 23 61 61C221 17 115-2 30 0v-248c76 3 177-17 177 60 0 33-19 50-47 57zm-97-11c50-1 110 9 110-42 0-47-63-36-110-37v79zm0 115c55-2 124 14 124-45 0-56-70-42-124-44v89" id="aa"/><g id="l"><use transform="matrix(0.06172839506172839,0,0,0.06172839506172839,0,0)" xlink:href="#aa"/><use transform="matrix(0.06172839506172839,0,0,0.06172839506172839,14.814814814814813,0)" xlink:href="#V"/><use transform="matrix(0.06172839506172839,0,0,0.06172839506172839,19.691358024691354,0)" xlink:href="#S"/><use transform="matrix(0.06172839506172839,0,0,0.06172839506172839,32.03703703703703,0)" xlink:href="#I"/></g><path fill="#3a414a" d="M212-179c-10-28-35-45-73-45-59 0-87 40-87 99 0 60 29 101 89 101 43 0 62-24 78-52l27 14C228-24 195 4 139 4 59 4 22-46 18-125c-6-104 99-153 187-111 19 9 31 26 39 46" id="ab"/><g id="m"><use transform="matrix(0.06172839506172839,0,0,0.06172839506172839,0,0)" xlink:href="#ab"/><use transform="matrix(0.06172839506172839,0,0,0.06172839506172839,15.987654320987653,0)" xlink:href="#X"/><use transform="matrix(0.06172839506172839,0,0,0.06172839506172839,28.333333333333332,0)" xlink:href="#B"/></g><g id="n"><use transform="matrix(0.06172839506172839,0,0,0.06172839506172839,0,0)" xlink:href="#A"/><use transform="matrix(0.06172839506172839,0,0,0.06172839506172839,14.814814814814813,0)" xlink:href="#B"/><use transform="matrix(0.06172839506172839,0,0,0.06172839506172839,22.160493827160494,0)" xlink:href="#C"/><use transform="matrix(0.06172839506172839,0,0,0.06172839506172839,34.50617283950617,0)" xlink:href="#D"/><use transform="matrix(0.06172839506172839,0,0,0.06172839506172839,52.96296296296296,0)" xlink:href="#E"/><use transform="matrix(0.06172839506172839,0,0,0.06172839506172839,65.30864197530865,0)" xlink:href="#F"/></g><path fill="#333" d="M230 0l2-204L168 0h-37L68-204 70 0H24v-248h70l56 185 57-185h69V0h-46" id="ac"/><path fill="#333" d="M110-194c64 0 96 36 96 99 0 64-35 99-97 99-61 0-95-36-95-99 0-62 34-99 96-99zm-1 164c35 0 45-28 45-65 0-40-10-65-43-65-34 0-45 26-45 65 0 36 10 65 43 65" id="ad"/><path fill="#333" d="M128 0H69L1-190h53L99-40l48-150h52" id="ae"/><path fill="#333" d="M185-48c-13 30-37 53-82 52C43 2 14-33 14-96s30-98 90-98c62 0 83 45 84 108H66c0 31 8 55 39 56 18 0 30-7 34-22zm-45-69c5-46-57-63-70-21-2 6-4 13-4 21h74" id="af"/><g id="o"><use transform="matrix(0.04938271604938272,0,0,0.04938271604938272,0,0)" xlink:href="#ac"/><use transform="matrix(0.04938271604938272,0,0,0.04938271604938272,14.765432098765434,0)" xlink:href="#ad"/><use transform="matrix(0.04938271604938272,0,0,0.04938271604938272,25.58024691358025,0)" xlink:href="#ae"/><use transform="matrix(0.04938271604938272,0,0,0.04938271604938272,35.45679012345679,0)" xlink:href="#af"/></g><path fill="#333" d="M115-3C79 11 28 4 28-45v-112H4v-33h27l15-45h31v45h36v33H77v99c-1 23 16 31 38 25v30" id="ag"/><path fill="#333" d="M231 0h-52l-39-155L100 0H48L-1-190h46L77-45c9-52 24-97 36-145h53l37 145 32-145h46" id="ah"/><path fill="#333" d="M133-34C117-15 103 5 69 4 32 3 11-16 11-54c-1-60 55-63 116-61 1-26-3-47-28-47-18 1-26 9-28 27l-52-2c7-38 36-58 82-57s74 22 75 68l1 82c-1 14 12 18 25 15v27c-30 8-71 5-69-32zm-48 3c29 0 43-24 42-57-32 0-66-3-65 30 0 17 8 27 23 27" id="ai"/><path fill="#333" d="M135-150c-39-12-60 13-60 57V0H25l-1-190h47c2 13-1 29 3 40 6-28 27-53 61-41v41" id="aj"/><path fill="#333" d="M88-194c31-1 46 15 58 34l-1-101h50l1 261h-48c-2-10 0-23-3-31C134-8 116 4 84 4 32 4 16-41 15-95c0-56 19-97 73-99zm17 164c33 0 40-30 41-66 1-37-9-64-41-64s-38 30-39 65c0 43 13 65 39 65" id="ak"/><g id="p"><use transform="matrix(0.04938271604938272,0,0,0.04938271604938272,0,0)" xlink:href="#ag"/><use transform="matrix(0.04938271604938272,0,0,0.04938271604938272,5.8765432098765435,0)" xlink:href="#ad"/><use transform="matrix(0.04938271604938272,0,0,0.04938271604938272,16.691358024691358,0)" xlink:href="#ah"/><use transform="matrix(0.04938271604938272,0,0,0.04938271604938272,30.518518518518523,0)" xlink:href="#ai"/><use transform="matrix(0.04938271604938272,0,0,0.04938271604938272,40.39506172839506,0)" xlink:href="#aj"/><use transform="matrix(0.04938271604938272,0,0,0.04938271604938272,47.308641975308646,0)" xlink:href="#ak"/></g><path fill="#333" d="M114-157C55-157 80-60 75 0H25v-261h50l-1 109c12-26 28-41 61-42 86-1 58 113 63 194h-50c-7-57 23-157-34-157" id="al"/><g id="q"><use transform="matrix(0.04938271604938272,0,0,0.04938271604938272,0,0)" xlink:href="#ag"/><use transform="matrix(0.04938271604938272,0,0,0.04938271604938272,5.8765432098765435,0)" xlink:href="#al"/><use transform="matrix(0.04938271604938272,0,0,0.04938271604938272,16.691358024691358,0)" xlink:href="#af"/></g><path fill="#333" d="M182-130c37 4 62 22 62 59C244 23 116-4 24 0v-248c84 5 203-23 205 63 0 31-19 50-47 55zM76-148c40-3 101 13 101-30 0-44-60-28-101-31v61zm0 110c48-3 116 14 116-37 0-48-69-32-116-35v72" id="am"/><path fill="#333" d="M25 0v-261h50V0H25" id="an"/><path fill="#333" d="M85 4C-2 5 27-109 22-190h50c7 57-23 150 33 157 60-5 35-97 40-157h50l1 190h-47c-2-12 1-28-3-38-12 25-28 42-61 42" id="ao"/><g id="r"><use transform="matrix(0.04938271604938272,0,0,0.04938271604938272,0,0)" xlink:href="#am"/><use transform="matrix(0.04938271604938272,0,0,0.04938271604938272,12.790123456790125,0)" xlink:href="#an"/><use transform="matrix(0.04938271604938272,0,0,0.04938271604938272,17.7283950617284,0)" xlink:href="#ao"/><use transform="matrix(0.04938271604938272,0,0,0.04938271604938272,28.54320987654322,0)" xlink:href="#af"/></g><path fill="#333" d="M67-125c0 53 21 87 73 88 37 1 54-22 65-47l45 17C233-25 199 4 140 4 58 4 20-42 15-125 8-235 124-281 211-232c18 10 29 29 36 50l-46 12c-8-25-30-41-62-41-52 0-71 34-72 86" id="ap"/><g id="s"><use transform="matrix(0.04938271604938272,0,0,0.04938271604938272,0,0)" xlink:href="#ap"/><use transform="matrix(0.04938271604938272,0,0,0.04938271604938272,12.790123456790125,0)" xlink:href="#ai"/><use transform="matrix(0.04938271604938272,0,0,0.04938271604938272,22.66666666666667,0)" xlink:href="#aj"/></g><path fill="#333" d="M190-63c-7 42-38 67-86 67-59 0-84-38-90-98-12-110 154-137 174-36l-49 2c-2-19-15-32-35-32-30 0-35 28-38 64-6 74 65 87 74 30" id="aq"/><g id="t"><use transform="matrix(0.04938271604938272,0,0,0.04938271604938272,0,0)" xlink:href="#ae"/><use transform="matrix(0.04938271604938272,0,0,0.04938271604938272,9.876543209876544,0)" xlink:href="#af"/><use transform="matrix(0.04938271604938272,0,0,0.04938271604938272,19.75308641975309,0)" xlink:href="#aq"/><use transform="matrix(0.04938271604938272,0,0,0.04938271604938272,29.629629629629633,0)" xlink:href="#ag"/><use transform="matrix(0.04938271604938272,0,0,0.04938271604938272,35.50617283950618,0)" xlink:href="#ad"/><use transform="matrix(0.04938271604938272,0,0,0.04938271604938272,46.320987654320994,0)" xlink:href="#aj"/></g><path fill="#3a414a" d="M179-190L93 31C79 59 56 82 12 73V49c39 6 53-20 64-50L1-190h34L92-34l54-156h33" id="ar"/><g id="u"><use transform="matrix(0.06172839506172839,0,0,0.06172839506172839,0,0)" xlink:href="#H"/><use transform="matrix(0.06172839506172839,0,0,0.06172839506172839,17.28395061728395,0)" xlink:href="#B"/><use transform="matrix(0.06172839506172839,0,0,0.06172839506172839,24.629629629629626,0)" xlink:href="#I"/><use transform="matrix(0.06172839506172839,0,0,0.06172839506172839,36.9753086419753,0)" xlink:href="#I"/><use transform="matrix(0.06172839506172839,0,0,0.06172839506172839,49.32098765432098,0)" xlink:href="#J"/><use transform="matrix(0.06172839506172839,0,0,0.06172839506172839,61.66666666666666,0)" xlink:href="#ar"/></g><g id="v"><use transform="matrix(0.06172839506172839,0,0,0.06172839506172839,0,0)" xlink:href="#aa"/><use transform="matrix(0.06172839506172839,0,0,0.06172839506172839,14.814814814814813,0)" xlink:href="#V"/><use transform="matrix(0.06172839506172839,0,0,0.06172839506172839,19.691358024691354,0)" xlink:href="#S"/><use transform="matrix(0.06172839506172839,0,0,0.06172839506172839,32.03703703703703,0)" xlink:href="#I"/></g><path fill="#3a414a" d="M16-82v-28h88v28H16" id="as"/><g id="w"><use transform="matrix(0.06172839506172839,0,0,0.06172839506172839,0,0)" xlink:href="#P"/><use transform="matrix(0.06172839506172839,0,0,0.06172839506172839,13.518518518518517,0)" xlink:href="#B"/><use transform="matrix(0.06172839506172839,0,0,0.06172839506172839,20.864197530864196,0)" xlink:href="#C"/><use transform="matrix(0.06172839506172839,0,0,0.06172839506172839,33.20987654320987,0)" xlink:href="#L"/><use transform="matrix(0.06172839506172839,0,0,0.06172839506172839,45.55555555555555,0)" xlink:href="#as"/><use transform="matrix(0.06172839506172839,0,0,0.06172839506172839,52.90123456790123,0)" xlink:href="#ab"/><use transform="matrix(0.06172839506172839,0,0,0.06172839506172839,68.88888888888889,0)" xlink:href="#X"/><use transform="matrix(0.06172839506172839,0,0,0.06172839506172839,81.23456790123457,0)" xlink:href="#B"/></g><g id="x"><use transform="matrix(0.06172839506172839,0,0,0.06172839506172839,0,0)" xlink:href="#aa"/><use transform="matrix(0.06172839506172839,0,0,0.06172839506172839,14.814814814814813,0)" xlink:href="#V"/><use transform="matrix(0.06172839506172839,0,0,0.06172839506172839,19.691358024691354,0)" xlink:href="#S"/><use transform="matrix(0.06172839506172839,0,0,0.06172839506172839,32.03703703703703,0)" xlink:href="#I"/><use transform="matrix(0.06172839506172839,0,0,0.06172839506172839,44.38271604938271,0)" xlink:href="#ar"/></g><g id="y"><use transform="matrix(0.06172839506172839,0,0,0.06172839506172839,0,0)" xlink:href="#H"/><use transform="matrix(0.06172839506172839,0,0,0.06172839506172839,17.28395061728395,0)" xlink:href="#B"/><use transform="matrix(0.06172839506172839,0,0,0.06172839506172839,24.629629629629626,0)" xlink:href="#I"/><use transform="matrix(0.06172839506172839,0,0,0.06172839506172839,36.9753086419753,0)" xlink:href="#I"/><use transform="matrix(0.06172839506172839,0,0,0.06172839506172839,49.32098765432098,0)" xlink:href="#J"/></g><g id="z"><use transform="matrix(0.06172839506172839,0,0,0.06172839506172839,0,0)" xlink:href="#ab"/><use transform="matrix(0.06172839506172839,0,0,0.06172839506172839,15.987654320987653,0)" xlink:href="#X"/><use transform="matrix(0.06172839506172839,0,0,0.06172839506172839,28.333333333333332,0)" xlink:href="#B"/><use transform="matrix(0.06172839506172839,0,0,0.06172839506172839,35.67901234567901,0)" xlink:href="#as"/><use transform="matrix(0.06172839506172839,0,0,0.06172839506172839,43.02469135802469,0)" xlink:href="#P"/><use transform="matrix(0.06172839506172839,0,0,0.06172839506172839,56.54320987654321,0)" xlink:href="#B"/><use transform="matrix(0.06172839506172839,0,0,0.06172839506172839,63.888888888888886,0)" xlink:href="#C"/><use transform="matrix(0.06172839506172839,0,0,0.06172839506172839,76.23456790123457,0)" xlink:href="#L"/></g></defs></g></svg>